<svg id="Group_2" data-name="Group 2" xmlns="http://www.w3.org/2000/svg" xmlns:xlink="http://www.w3.org/1999/xlink" width="1224.625" height="313.76" viewBox="0 0 1224.625 313.76">
  <defs>
    <clipPath id="clip-path">
      <rect id="Rectangle_1" data-name="Rectangle 1" width="1224.625" height="313.76" fill="none"/>
    </clipPath>
  </defs>
  <g id="Group_1" data-name="Group 1" clip-path="url(#clip-path)">
    <path id="Path_1" data-name="Path 1" d="M322.782,72.409,206.561,286.544a10.9,10.9,0,0,1-6.617,5.287l-76.217,21.5a10.876,10.876,0,0,1-12.536-15.613l90.258-167.968a7.757,7.757,0,0,0-8.941-11.136L151.826,130.1l-55.732,99.56a10.916,10.916,0,0,1-6.534,5.155L46.978,246.84l-.581.149-32.522,9.178A10.876,10.876,0,0,1,1.421,240.388L95.214,72.853a5.91,5.91,0,0,0-7.13-8.458l-27.947,9.9,18.451-33.3A17.7,17.7,0,0,1,89.31,32.525l51.277-14.319.8-.216L203.6.432a10.877,10.877,0,0,1,12.42,15.829L170.88,96.085V96.1l58.144-16.41.017-.017,81.221-22.928a10.885,10.885,0,0,1,12.52,15.662" fill="#161615"/>
    <path id="Path_2" data-name="Path 2" d="M387.722,177.122q4.317-12.234,8.758-24.95t8.635-24.71q4.194-11.992,7.8-22.551t6.236-18.233a119.769,119.769,0,0,0-15.115-9.6,2.572,2.572,0,0,1-1.077-3.119,2.441,2.441,0,0,1,2.52-1.918h59.977a10.21,10.21,0,0,1,8.876,4.438,10.044,10.044,0,0,1,1.2,9.715l-17.035,48.7h83.249l21.831-62.853h56.858L564.292,232.782q-2.4,7.194-10.074,7.2h-48.7l22.072-64.295H428.747a2.421,2.421,0,0,0-2.52,1.68,2.555,2.555,0,0,0,.6,2.878l12.236,11.038a222.911,222.911,0,0,0-7.678,21.71q-2.643,9.238-4.675,15.235a26.77,26.77,0,0,1-4.559,8.876q-2.52,2.877-7.319,2.878H365.653q.238-.955,2.038-6.238t4.8-13.793q3-8.516,6.955-19.555t8.277-23.27" fill="#161615"/>
    <path id="Path_3" data-name="Path 3" d="M636.6,72.048a2.072,2.072,0,0,0-2.16,1.5,2.019,2.019,0,0,0,.92,2.51l12.6,8.43q-2.265,6.84-5.99,17.27-3.7,10.44-8.05,22.59t-8.98,25.2c-3.1,8.7-2.62,6.96-5.52,14.93s-5.5,15.26-7.84,21.88-13.37,35.9-14.75,40.05h42.13q6.615,0,8.68-6.02l15.61-41.73h69.6l-14.54,39.39h42.76q6.6,0,8.67-6.03c1.37-4.15,8.54-25.42,11.08-32.78s5.37-15.53,8.47-24.5,2.83-8.2,6.13-17.84,6.48-18.74,9.5-27.31,5.72-16.19,8.06-22.89,4.06-11.57,5.16-14.65Zm120.21,38.75-13.85,39.35h-69.59l11.77-32.93-8.26-7.22a2.253,2.253,0,0,1,1.44-4.02h74.15q6.2,0,4.34,4.82" fill="#161615"/>
    <path id="Path_4" data-name="Path 4" d="M1160.2,228.874a7.458,7.458,0,0,1,.482,3.956,7.3,7.3,0,0,1-1.5,3.575,9.8,9.8,0,0,1-3.068,2.536,8.926,8.926,0,0,1-4.286,1.039h-40.849c-.912-2.637-19.79-54.184-19.79-54.184l-10.134,9.136-16.68,39.393a8.256,8.256,0,0,1-3.373,4.159,9.681,9.681,0,0,1-5.2,1.5h-41.432c1.877-4.893,4.057-10.7,6.593-17.419q3.765-10.079,8.063-21.376,4.26-11.295,8.672-23.251,4.374-11.943,8.444-22.872,4.107-10.915,7.48-20.158c2.256-6.136,8.1-22.908,9.569-26.915l-12.145-7.734a1.782,1.782,0,0,1-.812-2.357,2.2,2.2,0,0,1,2.206-1.4l54.308-4.724a7.417,7.417,0,0,1,6.288,3.018,6.078,6.078,0,0,1,.888,6.391l-18.6,48.349,69.137-57.374a10.778,10.778,0,0,1,4.97-1.5l55.185-6.834-93.806,78Z" fill="#161615"/>
    <path id="Path_5" data-name="Path 5" d="M1224.625,72.048l-184.347,15.02-52.189,145.71q-2.415,7.2-10.081,7.2h-45.82q-1.918-4.08-5.04-10.44-3.12-6.345-7.08-14.03t-8.4-16.31q-4.441-8.64-8.75-17.04-5.042-10.065-10.44-20.27-5.4-10.185-11.151-21.71c-.169.32-1.12,2.96-2.88,7.92s-3.88,10.99-6.359,18.11-5.12,14.71-7.911,22.79q-4.215,12.12-7.68,22.31-3.48,10.2-5.639,16.43-1.742,5.025-1.76,5.23c-1.61,4.67-4.951,7.01-9.99,7.01h-34.13l-208.148,1.74,198.727-17.6c.08-.22.161-.46.241-.69q3.72-10.8,8.519-24.48t10.19-29.26q5.4-15.6,10.8-30.83t10.08-28.79q4.68-13.545,8.031-23.39l-14.63-9.84c-1.291-.8-1.68-1.79-1.2-3a2.632,2.632,0,0,1,2.64-1.79h74.61l52.539,108.67,31.911-108.67Z" fill="#161615"/>
  </g>
</svg>
